<svg width="114" height="114" xmlns="http://www.w3.org/2000/svg" xmlns:xlink="http://www.w3.org/1999/xlink" overflow="hidden"><defs><clipPath id="clip0"><rect x="207" y="316" width="114" height="114"/></clipPath></defs><g clip-path="url(#clip0)" transform="translate(-207 -316)"><path d="M280.862 380.837C285.85 382.619 290.6 384.638 294.519 387.844 296.181 389.15 297.131 391.05 297.131 393.188L299.269 411.594C299.388 412.425 299.031 413.256 298.319 413.731L298.319 413.731C296.3 415.038 294.163 416.106 291.906 416.819L291.906 420.619 295.112 420.619C297.131 419.788 299.15 418.837 300.931 417.65L300.931 417.65C303.069 416.225 304.256 413.612 303.9 411L302 393.069C301.881 389.625 300.337 386.419 297.606 384.281 293.212 380.6 287.987 378.344 282.525 376.444L276.706 374.069C276.231 373.831 275.994 373.475 275.994 373L275.994 370.15C280.506 366.587 283.119 361.125 283.119 355.306L283.119 351.031C283.831 351.506 284.663 351.625 285.494 351.744L283.475 345.806C283.237 344.975 283 344.144 282.881 343.312 281.931 336.544 277.894 331.794 272.312 328.825 271.837 328.587 271.244 328.587 270.769 328.944L269.7 329.775 268.513 328.112C268.156 327.638 267.681 327.163 267.087 327.044 266.019 326.806 264.95 326.688 263.881 326.688 254.5 326.688 246.663 334.05 245 343.669L245 344.5 245 344.5 245 346.519C245 349.131 244.525 351.625 243.456 354L241.438 358.75C241.438 358.75 242.863 358.394 245.238 357.681 245.831 362.55 248.325 366.944 252.125 369.913L252.125 372.881C252.125 373.356 251.887 373.831 251.413 373.95L245.594 376.325C240.131 378.225 234.906 380.481 230.512 384.163 227.781 386.3 226.119 389.506 226 392.95L223.981 411C223.625 413.612 224.812 416.225 226.95 417.65 228.731 418.837 230.75 419.788 232.769 420.619L236.094 420.619 236.094 416.938C233.837 416.106 231.7 415.156 229.681 413.85 228.969 413.375 228.613 412.544 228.731 411.712L230.75 393.425 230.75 393.188C230.75 391.05 231.819 389.15 233.481 387.844 237.4 384.638 242.15 382.619 247.137 380.837L249.038 380.244C252.481 382.381 257.944 383.688 264 383.688 270.056 383.688 275.519 382.381 279.081 380.244L280.862 380.837ZM249.75 356.256C257.825 353.525 269.462 348.775 274.688 342.125 275.756 343.788 276.944 345.331 278.25 346.875L278.25 355.188C278.25 363.025 271.837 369.438 264 369.438 256.519 369.438 250.344 363.737 249.75 356.256ZM254.5 377.631C255.925 376.562 256.875 374.781 256.875 372.881L256.875 372.763C261.388 374.663 266.612 374.663 271.125 372.763L271.125 372.881C271.125 374.663 271.956 376.444 273.381 377.631 270.294 378.581 267.087 379.056 263.881 378.938 260.794 378.938 257.587 378.462 254.5 377.631Z" fill="#A9D18E"/><path d="M289.65 393.544C289.65 391.881 288.344 390.575 286.681 390.575L286.681 390.575 241.438 390.575C239.775 390.575 238.469 391.881 238.469 393.544L238.469 393.544 238.469 423.112 229.444 423.112 229.444 424.656C229.444 426.319 230.75 427.625 232.413 427.625L295.706 427.625C297.369 427.625 298.675 426.319 298.675 424.656L298.675 423.112 289.65 423.112 289.65 393.544ZM257.825 413.138 256.163 414.8 249.512 408.15 256.163 401.5 257.825 403.163 252.837 408.15 257.825 413.138ZM262.337 415.631 260.2 414.681 265.781 401.263 267.919 402.212 262.337 415.631ZM271.837 414.919 270.175 413.256 275.163 408.269 270.175 403.281 271.837 401.619 278.487 408.269 271.837 414.919Z" fill="#A9D18E"/></g></svg>