<svg width="134" height="135" xmlns="http://www.w3.org/2000/svg" xmlns:xlink="http://www.w3.org/1999/xlink" overflow="hidden"><defs><clipPath id="clip0"><rect x="197" y="195" width="134" height="135"/></clipPath></defs><g clip-path="url(#clip0)" transform="translate(-197 -195)"><path d="M58.625 37.6875 80.9583 37.6875 80.9583 33.5C80.9583 30.4292 78.4458 27.9167 75.375 27.9167L16.75 27.9167C13.6792 27.9167 11.1667 30.4292 11.1667 33.5L11.1667 71.1875C11.1667 74.2583 13.6792 76.7708 16.75 76.7708L25.125 76.7708 25.125 90.7292 39.0833 76.7708 47.4583 76.7708 47.4583 48.8542C47.4583 42.7125 52.4833 37.6875 58.625 37.6875Z" fill="#7C7C7C" transform="matrix(1 0 0 1.00746 197 195)"/><path d="M117.25 43.2708 58.625 43.2708C55.5542 43.2708 53.0417 45.7833 53.0417 48.8542L53.0417 86.5417C53.0417 89.6125 55.5542 92.125 58.625 92.125L94.9167 92.125 108.875 106.083 108.875 92.125 117.25 92.125C120.321 92.125 122.833 89.6125 122.833 86.5417L122.833 48.8542C122.833 45.7833 120.321 43.2708 117.25 43.2708Z" fill="#7C7C7C" transform="matrix(1 0 0 1.00746 197 195)"/></g></svg>