<svg width="125" height="125" xmlns="http://www.w3.org/2000/svg" xmlns:xlink="http://www.w3.org/1999/xlink" overflow="hidden"><defs><clipPath id="clip0"><rect x="453" y="168" width="125" height="125"/></clipPath></defs><g clip-path="url(#clip0)" transform="translate(-453 -168)"><path d="M547.922 228.547C543.365 233.234 539.068 236.229 529.693 237.271 532.167 234.797 535.031 232.323 537.505 229.328 538.547 228.156 540.5 225.552 540.5 225.422 542.714 221.776 544.016 217.609 544.016 213.052L544.016 196.125 553.13 196.125 553.13 215.917C553.26 216.177 553.521 222.688 547.922 228.547ZM483.208 228.547C477.479 222.688 477.74 216.177 477.74 215.917L477.74 195.995 486.854 195.995 486.854 212.922C486.854 217.479 488.156 221.646 490.37 225.292 490.37 225.422 492.323 228.156 493.365 229.198 495.969 232.193 498.703 234.667 501.177 237.141 492.062 236.099 487.635 233.104 483.208 228.547ZM561.073 215.526 561.073 188.182 544.146 188.182 544.146 179.068 515.5 179.068 486.854 179.068 486.854 188.182 469.927 188.182 469.927 215.396C469.927 216.698 469.927 225.682 477.349 233.625 484.51 241.177 493.234 245.083 508.469 245.344 509.641 247.297 510.292 249.51 510.292 251.854L510.292 268.781 503.781 268.781C500.917 268.781 498.573 271.125 498.573 273.99L492.062 273.99C489.198 273.99 486.854 276.333 486.854 279.198L486.854 281.802 544.146 281.802 544.146 279.198C544.146 276.333 541.802 273.99 538.938 273.99L532.427 273.99C532.427 271.125 530.083 268.781 527.219 268.781L520.708 268.781 520.708 251.984C520.708 249.641 521.359 247.427 522.531 245.474 537.766 245.214 546.49 241.177 553.651 233.755 561.073 225.943 561.073 216.828 561.073 215.526Z" fill="#FFD966"/></g></svg>